<?xml version="1.0" encoding="UTF-8"?><svg id="Capa_1" xmlns="http://www.w3.org/2000/svg" xmlns:xlink="http://www.w3.org/1999/xlink" viewBox="0 0 1924.09 443.23"><defs><style>.cls-1{fill:#3a84c9;}.cls-2{fill:url(#Degradado_sin_nombre_2);}.cls-3{fill:#045095;stroke:#045095;stroke-miterlimit:10;stroke-width:10px;}.cls-4{fill:url(#Degradado_sin_nombre);}</style><linearGradient id="Degradado_sin_nombre" x1="125.99" y1="83.42" x2="313.93" y2="83.42" gradientTransform="translate(0 384.83) scale(1 -1)" gradientUnits="userSpaceOnUse"><stop offset="0" stop-color="#24519e"/><stop offset="0" stop-color="#24519e"/><stop offset=".02" stop-color="#23529f"/><stop offset=".02" stop-color="#2253a0"/><stop offset=".03" stop-color="#2154a0"/><stop offset=".04" stop-color="#2055a1"/><stop offset=".05" stop-color="#1f56a2"/><stop offset=".05" stop-color="#1e57a2"/><stop offset=".06" stop-color="#1e57a3"/><stop offset=".07" stop-color="#1d58a4"/><stop offset=".08" stop-color="#1c59a5"/><stop offset=".09" stop-color="#1b5aa5"/><stop offset=".09" stop-color="#1a5ba6"/><stop offset=".1" stop-color="#195ca7"/><stop offset=".11" stop-color="#185da7"/><stop offset=".12" stop-color="#185da8"/><stop offset=".12" stop-color="#175ea9"/><stop offset=".13" stop-color="#165fa9"/><stop offset=".14" stop-color="#1560aa"/><stop offset=".15" stop-color="#1461ab"/><stop offset=".16" stop-color="#1362ab"/><stop offset=".16" stop-color="#1362ac"/><stop offset=".17" stop-color="#1263ad"/><stop offset=".18" stop-color="#1164ad"/><stop offset=".19" stop-color="#1065ae"/><stop offset=".2" stop-color="#0f66af"/><stop offset=".2" stop-color="#0e67af"/><stop offset=".21" stop-color="#0d68b0"/><stop offset=".22" stop-color="#0d68b1"/><stop offset=".23" stop-color="#0c69b2"/><stop offset=".23" stop-color="#0b6ab2"/><stop offset=".24" stop-color="#0a6bb3"/><stop offset=".25" stop-color="#096cb4"/><stop offset=".26" stop-color="#086db4"/><stop offset=".27" stop-color="#076eb5"/><stop offset=".27" stop-color="#076eb6"/><stop offset=".28" stop-color="#066fb6"/><stop offset=".29" stop-color="#0570b7"/><stop offset=".3" stop-color="#0471b8"/><stop offset=".3" stop-color="#0372b8"/><stop offset=".31" stop-color="#0273b9"/><stop offset=".32" stop-color="#0273ba"/><stop offset=".33" stop-color="#0174ba"/><stop offset=".34" stop-color="#0075bb"/><stop offset=".34" stop-color="#0076bc"/><stop offset=".35" stop-color="#0076bc"/><stop offset=".36" stop-color="#0077bd"/><stop offset=".37" stop-color="#0078bd"/><stop offset=".38" stop-color="#0078be"/><stop offset=".38" stop-color="#0079bf"/><stop offset=".39" stop-color="#007abf"/><stop offset=".4" stop-color="#007ac0"/><stop offset=".41" stop-color="#007bc0"/><stop offset=".41" stop-color="#007cc1"/><stop offset=".42" stop-color="#007cc1"/><stop offset=".43" stop-color="#007dc2"/><stop offset=".44" stop-color="#007ec3"/><stop offset=".45" stop-color="#007ec3"/><stop offset=".45" stop-color="#007fc4"/><stop offset=".46" stop-color="#0080c4"/><stop offset=".47" stop-color="#0080c5"/><stop offset=".48" stop-color="#0081c5"/><stop offset=".48" stop-color="#0082c6"/><stop offset=".49" stop-color="#0082c7"/><stop offset=".5" stop-color="#0083c7"/><stop offset=".51" stop-color="#0084c8"/><stop offset=".52" stop-color="#0084c8"/><stop offset=".52" stop-color="#0085c9"/><stop offset=".53" stop-color="#0085c9"/><stop offset=".54" stop-color="#0086ca"/><stop offset=".55" stop-color="#0087cb"/><stop offset=".55" stop-color="#0087cb"/><stop offset=".56" stop-color="#08c"/><stop offset=".57" stop-color="#0089cc"/><stop offset=".58" stop-color="#0089cd"/><stop offset=".59" stop-color="#008acd"/><stop offset=".59" stop-color="#008bce"/><stop offset=".6" stop-color="#008bcf"/><stop offset=".61" stop-color="#008ccf"/><stop offset=".62" stop-color="#008dd0"/><stop offset=".62" stop-color="#008dd0"/><stop offset=".63" stop-color="#008ed1"/><stop offset=".64" stop-color="#008fd2"/><stop offset=".65" stop-color="#008fd2"/><stop offset=".66" stop-color="#0090d3"/><stop offset=".66" stop-color="#0091d3"/><stop offset=".67" stop-color="#0091d4"/><stop offset=".68" stop-color="#0092d4"/><stop offset=".69" stop-color="#0093d5"/><stop offset=".7" stop-color="#0093d6"/><stop offset=".7" stop-color="#0094d6"/><stop offset=".71" stop-color="#0095d7"/><stop offset=".72" stop-color="#0095d7"/><stop offset=".73" stop-color="#0096d8"/><stop offset=".73" stop-color="#0196d8"/><stop offset=".73" stop-color="#0295d7"/><stop offset=".74" stop-color="#0395d7"/><stop offset=".74" stop-color="#0495d7"/><stop offset=".75" stop-color="#0595d7"/><stop offset=".75" stop-color="#0694d7"/><stop offset=".75" stop-color="#0694d6"/><stop offset=".76" stop-color="#0794d6"/><stop offset=".76" stop-color="#0893d6"/><stop offset=".77" stop-color="#0993d6"/><stop offset=".77" stop-color="#0a93d5"/><stop offset=".77" stop-color="#0b93d5"/><stop offset=".78" stop-color="#0c92d5"/><stop offset=".78" stop-color="#0d92d5"/><stop offset=".79" stop-color="#0d92d5"/><stop offset=".79" stop-color="#0e92d4"/><stop offset=".79" stop-color="#0f91d4"/><stop offset=".8" stop-color="#1091d4"/><stop offset=".8" stop-color="#1191d4"/><stop offset=".8" stop-color="#1290d3"/><stop offset=".81" stop-color="#1390d3"/><stop offset=".81" stop-color="#1490d3"/><stop offset=".82" stop-color="#1490d3"/><stop offset=".82" stop-color="#158fd2"/><stop offset=".82" stop-color="#168fd2"/><stop offset=".83" stop-color="#178fd2"/><stop offset=".83" stop-color="#188fd2"/><stop offset=".84" stop-color="#198ed2"/><stop offset=".84" stop-color="#1a8ed1"/><stop offset=".84" stop-color="#1b8ed1"/><stop offset=".85" stop-color="#1b8dd1"/><stop offset=".85" stop-color="#1c8dd1"/><stop offset=".86" stop-color="#1d8dd0"/><stop offset=".86" stop-color="#1e8dd0"/><stop offset=".86" stop-color="#1f8cd0"/><stop offset=".87" stop-color="#208cd0"/><stop offset=".87" stop-color="#218cd0"/><stop offset=".88" stop-color="#228ccf"/><stop offset=".88" stop-color="#228bcf"/><stop offset=".88" stop-color="#238bcf"/><stop offset=".89" stop-color="#248bcf"/><stop offset=".89" stop-color="#258ace"/><stop offset=".89" stop-color="#268ace"/><stop offset=".9" stop-color="#278ace"/><stop offset=".9" stop-color="#288ace"/><stop offset=".91" stop-color="#2989ce"/><stop offset=".91" stop-color="#2989cd"/><stop offset=".91" stop-color="#2a89cd"/><stop offset=".92" stop-color="#2b89cd"/><stop offset=".92" stop-color="#2c88cd"/><stop offset=".93" stop-color="#2d88cc"/><stop offset=".93" stop-color="#2e88cc"/><stop offset=".93" stop-color="#2f88cc"/><stop offset=".94" stop-color="#3087cc"/><stop offset=".94" stop-color="#3087cb"/><stop offset=".95" stop-color="#3187cb"/><stop offset=".95" stop-color="#3286cb"/><stop offset=".95" stop-color="#3386cb"/><stop offset=".96" stop-color="#3486cb"/><stop offset=".96" stop-color="#3586ca"/><stop offset=".96" stop-color="#3685ca"/><stop offset=".97" stop-color="#3785ca"/><stop offset=".97" stop-color="#3785ca"/><stop offset=".98" stop-color="#3885c9"/><stop offset=".98" stop-color="#3984c9"/><stop offset=".98" stop-color="#3a84c9"/><stop offset="1" stop-color="#3a84c9"/></linearGradient><linearGradient id="Degradado_sin_nombre_2" x1="64.89" y1="172.72" x2="455.99" y2="172.72" gradientTransform="translate(0 384.83) scale(1 -1)" gradientUnits="userSpaceOnUse"><stop offset="0" stop-color="#24519e"/><stop offset="0" stop-color="#24519e"/><stop offset=".02" stop-color="#23529f"/><stop offset=".02" stop-color="#2253a0"/><stop offset=".03" stop-color="#2154a0"/><stop offset=".04" stop-color="#2055a1"/><stop offset=".05" stop-color="#1f56a2"/><stop offset=".05" stop-color="#1e57a2"/><stop offset=".06" stop-color="#1e57a3"/><stop offset=".07" stop-color="#1d58a4"/><stop offset=".08" stop-color="#1c59a5"/><stop offset=".09" stop-color="#1b5aa5"/><stop offset=".09" stop-color="#1a5ba6"/><stop offset=".1" stop-color="#195ca7"/><stop offset=".11" stop-color="#185da7"/><stop offset=".12" stop-color="#185da8"/><stop offset=".12" stop-color="#175ea9"/><stop offset=".13" stop-color="#165fa9"/><stop offset=".14" stop-color="#1560aa"/><stop offset=".15" stop-color="#1461ab"/><stop offset=".16" stop-color="#1362ab"/><stop offset=".16" stop-color="#1362ac"/><stop offset=".17" stop-color="#1263ad"/><stop offset=".18" stop-color="#1164ad"/><stop offset=".19" stop-color="#1065ae"/><stop offset=".2" stop-color="#0f66af"/><stop offset=".2" stop-color="#0e67af"/><stop offset=".21" stop-color="#0d68b0"/><stop offset=".22" stop-color="#0d68b1"/><stop offset=".23" stop-color="#0c69b2"/><stop offset=".23" stop-color="#0b6ab2"/><stop offset=".24" stop-color="#0a6bb3"/><stop offset=".25" stop-color="#096cb4"/><stop offset=".26" stop-color="#086db4"/><stop offset=".27" stop-color="#076eb5"/><stop offset=".27" stop-color="#076eb6"/><stop offset=".28" stop-color="#066fb6"/><stop offset=".29" stop-color="#0570b7"/><stop offset=".3" stop-color="#0471b8"/><stop offset=".3" stop-color="#0372b8"/><stop offset=".31" stop-color="#0273b9"/><stop offset=".32" stop-color="#0273ba"/><stop offset=".33" stop-color="#0174ba"/><stop offset=".34" stop-color="#0075bb"/><stop offset=".34" stop-color="#0076bc"/><stop offset=".35" stop-color="#0076bc"/><stop offset=".36" stop-color="#0077bd"/><stop offset=".37" stop-color="#0078bd"/><stop offset=".38" stop-color="#0078be"/><stop offset=".38" stop-color="#0079bf"/><stop offset=".39" stop-color="#007abf"/><stop offset=".4" stop-color="#007ac0"/><stop offset=".41" stop-color="#007bc0"/><stop offset=".41" stop-color="#007cc1"/><stop offset=".42" stop-color="#007cc1"/><stop offset=".43" stop-color="#007dc2"/><stop offset=".44" stop-color="#007ec3"/><stop offset=".45" stop-color="#007ec3"/><stop offset=".45" stop-color="#007fc4"/><stop offset=".46" stop-color="#0080c4"/><stop offset=".47" stop-color="#0080c5"/><stop offset=".48" stop-color="#0081c5"/><stop offset=".48" stop-color="#0082c6"/><stop offset=".49" stop-color="#0082c7"/><stop offset=".5" stop-color="#0083c7"/><stop offset=".51" stop-color="#0084c8"/><stop offset=".52" stop-color="#0084c8"/><stop offset=".52" stop-color="#0085c9"/><stop offset=".53" stop-color="#0085c9"/><stop offset=".54" stop-color="#0086ca"/><stop offset=".55" stop-color="#0087cb"/><stop offset=".55" stop-color="#0087cb"/><stop offset=".56" stop-color="#08c"/><stop offset=".57" stop-color="#0089cc"/><stop offset=".58" stop-color="#0089cd"/><stop offset=".59" stop-color="#008acd"/><stop offset=".59" stop-color="#008bce"/><stop offset=".6" stop-color="#008bcf"/><stop offset=".61" stop-color="#008ccf"/><stop offset=".62" stop-color="#008dd0"/><stop offset=".62" stop-color="#008dd0"/><stop offset=".63" stop-color="#008ed1"/><stop offset=".64" stop-color="#008fd2"/><stop offset=".65" stop-color="#008fd2"/><stop offset=".66" stop-color="#0090d3"/><stop offset=".66" stop-color="#0091d3"/><stop offset=".67" stop-color="#0091d4"/><stop offset=".68" stop-color="#0092d4"/><stop offset=".69" stop-color="#0093d5"/><stop offset=".7" stop-color="#0093d6"/><stop offset=".7" stop-color="#0094d6"/><stop offset=".71" stop-color="#0095d7"/><stop offset=".72" stop-color="#0095d7"/><stop offset=".73" stop-color="#0096d8"/><stop offset=".73" stop-color="#0196d8"/><stop offset=".73" stop-color="#0295d7"/><stop offset=".74" stop-color="#0395d7"/><stop offset=".74" stop-color="#0495d7"/><stop offset=".75" stop-color="#0595d7"/><stop offset=".75" stop-color="#0694d7"/><stop offset=".75" stop-color="#0694d6"/><stop offset=".76" stop-color="#0794d6"/><stop offset=".76" stop-color="#0893d6"/><stop offset=".77" stop-color="#0993d6"/><stop offset=".77" stop-color="#0a93d5"/><stop offset=".77" stop-color="#0b93d5"/><stop offset=".78" stop-color="#0c92d5"/><stop offset=".78" stop-color="#0d92d5"/><stop offset=".79" stop-color="#0d92d5"/><stop offset=".79" stop-color="#0e92d4"/><stop offset=".79" stop-color="#0f91d4"/><stop offset=".8" stop-color="#1091d4"/><stop offset=".8" stop-color="#1191d4"/><stop offset=".8" stop-color="#1290d3"/><stop offset=".81" stop-color="#1390d3"/><stop offset=".81" stop-color="#1490d3"/><stop offset=".82" stop-color="#1490d3"/><stop offset=".82" stop-color="#158fd2"/><stop offset=".82" stop-color="#168fd2"/><stop offset=".83" stop-color="#178fd2"/><stop offset=".83" stop-color="#188fd2"/><stop offset=".84" stop-color="#198ed2"/><stop offset=".84" stop-color="#1a8ed1"/><stop offset=".84" stop-color="#1b8ed1"/><stop offset=".85" stop-color="#1b8dd1"/><stop offset=".85" stop-color="#1c8dd1"/><stop offset=".86" stop-color="#1d8dd0"/><stop offset=".86" stop-color="#1e8dd0"/><stop offset=".86" stop-color="#1f8cd0"/><stop offset=".87" stop-color="#208cd0"/><stop offset=".87" stop-color="#218cd0"/><stop offset=".88" stop-color="#228ccf"/><stop offset=".88" stop-color="#228bcf"/><stop offset=".88" stop-color="#238bcf"/><stop offset=".89" stop-color="#248bcf"/><stop offset=".89" stop-color="#258ace"/><stop offset=".89" stop-color="#268ace"/><stop offset=".9" stop-color="#278ace"/><stop offset=".9" stop-color="#288ace"/><stop offset=".91" stop-color="#2989ce"/><stop offset=".91" stop-color="#2989cd"/><stop offset=".91" stop-color="#2a89cd"/><stop offset=".92" stop-color="#2b89cd"/><stop offset=".92" stop-color="#2c88cd"/><stop offset=".93" stop-color="#2d88cc"/><stop offset=".93" stop-color="#2e88cc"/><stop offset=".93" stop-color="#2f88cc"/><stop offset=".94" stop-color="#3087cc"/><stop offset=".94" stop-color="#3087cb"/><stop offset=".95" stop-color="#3187cb"/><stop offset=".95" stop-color="#3286cb"/><stop offset=".95" stop-color="#3386cb"/><stop offset=".96" stop-color="#3486cb"/><stop offset=".96" stop-color="#3586ca"/><stop offset=".96" stop-color="#3685ca"/><stop offset=".97" stop-color="#3785ca"/><stop offset=".97" stop-color="#3785ca"/><stop offset=".98" stop-color="#3885c9"/><stop offset=".98" stop-color="#3984c9"/><stop offset=".98" stop-color="#3a84c9"/><stop offset="1" stop-color="#3a84c9"/></linearGradient></defs><g><path class="cls-4" d="M309.19,393.67c.1-.5,.4-1.8,.7-3.1-.1,.3-.2,.1,0-1.2,.1-.8,.2-1.7,.3-2.5,1.1-8.8,1.9-17.5,2.5-26.3,1.5-22.6,1.6-45.4,.5-68.1-.7-13.8-1.8-27.5-3.3-41.2-.4-3.8-.9-7.7-1.4-11.5-.1-.7-.1-1.2-.2-1.6,0-.3-.1-.7-.2-1.2-.3-1.8-.5-3.6-.8-5.3-.9-5.9-1.9-11.8-3-17.7-1.8-9.4-4-18.8-7.1-27.8-.1-.2-.1-.3-.2-.5-.5,1-1,1.9-1.5,2.9-.7,1.4-1.4,2.9-2.1,4.4-.4,.9-.8,1.9-1.2,2.8,.1-.2,.2-.3,.2-.5,.5-1.2,1.9-3.9,0,0,0,.1-.1,.1-.1,.2-3.6,8.9-6.5,18.1-9.2,27.3-7.3,25.1-12.2,50.7-17.3,76.3-4,20.1-8.1,40.4-14.5,59.8-4.1,12.5-9.3,27.9-21.2,35.2-14.2,8.8-28.6,.6-36.9-11.8-8.5-12.7-12.8-28.9-17-43.5-6.6-23.3-11.1-47.1-16.8-70.6-1.2-5-2.6-10-4.2-14.9-.2,.5-.5,1.1-.7,1.6,0,.1-.1,.1-.1,.2-12.8,32.8-20.2,68.2-26,102.9-.4,2.2-1.2,4.1-2.4,5.7,35,33.1,82.3,53.5,134.4,53.5,15.7,0,30.9-1.9,45.6-5.3,.5-2.7,1.1-5.4,1.5-8.1,.7-3.4,1.2-6.8,1.7-10.1Z"/><path class="cls-2" d="M455.99,221.67c0-108-87.5-195.6-195.5-195.6S64.89,113.67,64.89,221.67c0,39.9,11.9,76.9,32.4,107.8,2.4-12.2,5.1-24.4,8.1-36.5,5.4-22.1,11.3-45.8,22.8-65.6,5.2-8.8,12.3-16.9,22.6-19.4,14-3.4,25.8,6.4,32,18.1,7.9,14.8,11.3,31.6,14.9,47.9,5,23.3,10.2,46.7,17.7,69.3,.5,1.5,1,3,1.6,4.5,1.2-3.5,2.5-7.1,3.5-10.7,2.7-10,5.1-20,7.2-30.1,5.8-26.6,10.2-53.5,17.1-79.9,5.1-19.8,11.1-40,20.6-58.3,6.6-12.6,17.2-26.4,32.9-26.4,17.9,0,27.2,16.9,32.7,31.4,8.4,22.1,11.2,46.6,14,69.8,5.7,46.9,7,94.7,1.4,141.7-.5,4.3-1,8.5-1.6,12.9,65.8-31.5,111.2-98.7,111.2-176.5Z"/></g><g><path class="cls-3" d="M525.09,193.57c0-21.2-.4-38.5-1.7-55.5h32.6l1.7,33h1.3c11.4-19.5,30.5-37.7,64.3-37.7,27.9,0,49.1,16.9,58,41.1h.8c6.4-11.4,14.4-20.3,22.9-26.7,12.3-9.3,25.8-14.4,45.3-14.4,27.1,0,67.3,17.8,67.3,88.9v120.6h-36.4v-116c0-39.4-14.4-63.1-44.4-63.1-21.2,0-37.7,15.7-44,33.9-1.7,5.1-3,11.9-3,18.6v126.6h-36.4v-122.6c0-32.6-14.4-56.3-42.8-56.3-23.3,0-40.2,18.6-46.1,37.3-2.1,5.5-3,11.9-3,18.2v123.6h-36.4V193.57h0Z"/><path class="cls-3" d="M919.59,80.57c.4,12.7-8.9,22.9-23.7,22.9-13.1,0-22.4-10.2-22.4-22.9s9.7-23.3,23.3-23.3c13.9,0,22.8,10.1,22.8,23.3Zm-41.5,262.4V138.07h37.3v204.9h-37.3Z"/><path class="cls-3" d="M977.19,193.57c0-21.2-.4-38.5-1.7-55.5h33l2.1,33.9h.8c10.2-19.5,33.9-38.5,67.7-38.5,28.4,0,72.4,16.9,72.4,87.2v122.3h-37.3v-118.1c0-33-12.3-60.5-47.4-60.5-24.6,0-43.6,17.4-50,38.1-1.7,4.7-2.5,11-2.5,17.4v123.2h-37.3V193.57h.2Z"/><path class="cls-3" d="M1389.09,42.47v247.6c0,18.2,.4,38.9,1.7,52.9h-33.4l-1.7-35.6h-.8c-11.4,22.9-36.4,40.2-69.8,40.2-49.5,0-87.6-41.9-87.6-104.1-.4-68.2,41.9-110.1,91.9-110.1,31.3,0,52.5,14.8,61.8,31.3h.8V42.47h37.1Zm-37.3,179c0-4.7-.4-11-1.7-15.7-5.5-23.7-25.8-43.2-53.8-43.2-38.5,0-61.4,33.9-61.4,79.2,0,41.5,20.3,75.8,60.5,75.8,25,0,47.8-16.5,54.6-44.4,1.3-5.1,1.7-10.2,1.7-16.1v-35.6h.1Z"/><path class="cls-1" d="M1455.09,347.67V168.47h-29.2v-28.8h29.2v-11.2c0-55,32.2-90.7,90.7-90.7,19.3,0,42.1,6,52.9,13.8l-10.7,28.8c-9-6.4-25.4-12-43.8-12-40,0-51.6,27.9-51.6,61v10.3h120.8v208h-37.4V168.47h-83.4v179.2h-37.5Z"/><path class="cls-1" d="M1721.59,79.87v59.7h54.2v28.8h-54.2v112.2c0,25.8,7.3,40.4,28.4,40.4,9.9,0,17.2-1.3,21.9-2.6l1.7,28.4c-7.3,3-18.9,5.2-33.5,5.2-17.6,0-31.8-5.6-40.8-15.9-10.7-11.2-14.6-29.7-14.6-54.2v-113.4h-32.2v-28.8h32.2v-49.9l36.9-9.9Z"/><path class="cls-1" d="M1807.99,325.27c0-15.9,10.7-27.1,25.8-27.1s25.4,11.2,25.4,27.1-9.9,27.1-25.8,27.1-25.4-11.6-25.4-27.1Z"/></g></svg>