<svg width="226" height="60" viewBox="0 0 226 60" fill="none" xmlns="http://www.w3.org/2000/svg">
<path fill-rule="evenodd" clip-rule="evenodd" d="M182.56 40.8288C179.493 42.5287 176.211 43.2084 172.002 44.9077C168.15 46.4704 166.58 47.9664 166.58 50.346C166.58 53.8801 168.577 55.9875 172.215 55.9875C176.924 55.9875 182.56 51.7726 182.56 47.0829V40.8288ZM188.624 52.3852C188.624 54.4243 189.195 55.9875 190.479 55.9875C193.546 55.9875 193.831 52.1808 193.831 50.21V47.3545H197.184V49.3264C197.184 56.5306 194.616 59.1823 189.195 59.1823C185.628 59.1823 183.488 57.1432 182.917 53.8801C179.421 57.5514 175.426 59.1823 170.29 59.1823C164.511 59.1823 159.802 56.7356 159.802 50.6853C159.802 41.849 172.644 41.9845 179.849 38.7214C182.061 37.7018 182.56 36.4107 182.56 34.3715C182.56 30.4965 180.777 28.5256 174.57 28.5256C171.788 28.5256 168.292 28.9332 166.224 31.1762C168.364 31.516 169.505 32.6039 169.505 34.6431C169.505 37.2942 167.222 38.2455 165.225 38.2455C162.727 38.2455 161.515 36.1391 161.515 33.4197C161.515 27.6415 169.648 25.3303 175.07 25.3303C183.273 25.3303 188.624 27.6415 188.624 36.479V52.3852ZM195.622 18.3565L194.337 17.5533C194.143 17.4257 194.117 17.2236 194.194 16.9823L197.499 11.639L192.091 12.4719C191.765 12.4639 191.52 12.2146 191.468 11.6459L191.181 9.77466L185.527 13.841C185.279 14.0368 184.976 14.1108 184.742 14.1046C184.28 14.0915 184.119 13.7232 184.337 13.04L189.256 4.41645L185.342 5.97741C184.51 5.95521 184.45 5.99506 184.278 5.2197L182.962 0L178.149 5.38593C177.789 5.78158 177.506 5.93699 177.273 5.92959C177.135 5.92561 176.93 5.83908 176.816 5.75596L174.108 4.14661L173.389 13.081C173.259 13.4835 172.864 13.8382 172.494 13.8273C172.217 13.8199 171.897 13.6503 171.577 13.196L168.77 9.27483L167.078 11.3385C166.705 11.774 166.634 11.8537 166.448 11.8485L161.481 10.8688L161.473 15.4059C161.487 16.3196 161.355 16.5992 161.06 16.6914L159.101 17.4109L164.295 22.2885C164.295 22.2885 164.576 22.5743 164.311 22.864C163.857 23.3861 162.789 24.2343 162.868 24.31C177.217 19.6852 187.854 24.3692 188.931 24.8303C188.931 24.8303 186.875 23.246 187.051 23.1475L195.622 18.3565Z" fill="#E60000"/>
<path fill-rule="evenodd" clip-rule="evenodd" d="M13.5545 33.2156H13.6974C15.4815 28.5253 19.6907 25.3305 23.8277 25.3305C28.679 25.3305 31.8886 27.8456 31.8886 32.5359C31.8886 35.1187 30.7478 37.0907 27.894 37.0907C25.9676 37.0907 23.8988 35.9345 23.8988 33.9636C23.8988 31.5163 25.6112 30.4284 28.1792 30.4284C27.8229 28.8652 25.6112 28.5253 24.0423 28.5253C17.3356 28.5253 13.8397 35.9345 13.8397 42.6639V51.8412C13.8397 53.9481 15.1246 54.9677 17.4074 54.9677H21.2597V58.163H0.285777V54.9677H4.92254C7.27707 54.9677 7.77633 53.9481 7.77633 51.8412V32.6719C7.77633 30.565 7.27707 29.5449 4.92254 29.5449H0V26.3501H13.5545V33.2156ZM58.2854 39.4688C58.2854 33.5557 55.5028 28.5256 49.0113 28.5256C42.3764 28.5256 39.3091 33.5557 39.3091 39.4688H58.2854ZM39.3091 42.6641C39.3091 49.5973 40.878 55.9875 49.2965 55.9875C55.0035 55.9875 58.4995 53.1326 59.9978 47.8297H64.1353C62.5664 55.1717 57.6439 59.1823 49.2253 59.1823C38.6675 59.1823 32.5319 53.4047 32.5319 42.2565C32.5319 31.1084 38.6675 25.3302 49.2253 25.3302C60.7111 25.3302 64.4205 33.012 65.0627 42.6641H39.3091ZM72.625 42.2565C72.625 50.0055 75.4793 55.3761 82.0419 55.3761C90.1035 55.3761 93.0284 49.0543 93.0284 42.2565C93.0284 35.4588 90.1035 29.1375 82.8264 29.1375C75.5499 29.1375 72.625 35.4588 72.625 42.2565ZM93.2425 52.0447H93.0996C90.5316 56.5989 87.5349 59.1823 81.2575 59.1823C70.5562 59.1823 65.8477 50.5497 65.8477 42.2565C65.8477 33.9633 70.5562 25.3302 81.2575 25.3302C85.8231 25.3302 90.6739 27.7775 93.0996 32.0602H93.2425V20.164C93.2425 17.9211 92.3151 16.2895 89.9606 16.2895H86.2506V13.0947H99.3064V52.5206C99.3064 54.1527 100.305 54.9679 101.946 54.9679H106.083V58.1633H93.2425V52.0447Z" fill="#202225"/>
<path fill-rule="evenodd" clip-rule="evenodd" d="M119.424 51.841C119.424 53.9485 119.924 54.9681 122.277 54.9681H126.843V58.1628H105.87V54.9681H110.507C112.861 54.9681 113.36 53.9485 113.36 51.841V19.4161C113.36 17.3092 111.648 16.2897 110.507 16.2897H105.87V13.0949H119.424V51.841ZM152.74 39.4687C152.74 33.5556 149.958 28.5255 143.466 28.5255C136.831 28.5255 133.764 33.5556 133.764 39.4687H152.74ZM133.764 42.664C133.764 49.5973 135.334 55.9874 143.751 55.9874C149.458 55.9874 152.954 53.1325 154.452 47.8297H158.59C157.02 55.1716 152.098 59.1822 143.68 59.1822C133.122 59.1822 126.986 53.4046 126.986 42.2564C126.986 31.1083 133.122 25.3301 143.68 25.3301C155.166 25.3301 158.875 33.012 159.517 42.664H133.764ZM210.099 29.5449V51.8412C210.099 53.9481 211.882 54.9677 214.165 54.9677H217.732V58.1631H196.402V54.9677H201.181C203.535 54.9677 204.035 53.9481 204.035 51.8412V29.5449H196.402V26.3502H204.035V21.7276C204.035 14.454 209.67 11.7351 215.092 11.7351C219.159 11.7351 225.579 13.0945 225.579 18.8727C225.579 21.3878 223.724 22.7472 221.298 22.7472C218.374 22.7472 217.59 21.184 217.59 19.4164C217.59 17.7848 218.945 16.9013 220.443 16.7652C219.373 15.3375 216.947 14.9299 215.306 14.9299C212.453 14.9299 210.099 17.3772 210.099 20.9119V26.3502H218.017V29.5449H210.099Z" fill="#202225"/>
</svg>
