<svg viewBox="0 0 125 35" xmlns="http://www.w3.org/2000/svg"><g fill="#618faf"><path d="m8.49 7.48v4.61h3.13v2.59h-3.13v7.59a2.14 2.14 0 0 0 .51 1.52 2.07 2.07 0 0 0 1.54.48 4.63 4.63 0 0 0 1.12-.12v2.43a5.63 5.63 0 0 1 -1.93.28 3.94 3.94 0 0 1 -2.94-1.1 4.18 4.18 0 0 1 -1.08-3.07v-8h-2.81v-2.6h.78a2.11 2.11 0 0 0 1.67-.62 2.35 2.35 0 0 0 .56-1.62v-2.37z"/><path d="m21.29 11.94v3a8.69 8.69 0 0 0 -1.23-.09c-2.64 0-4 1.5-4 4.49v7.36h-2.79v-14.61h2.73v2.56a4.49 4.49 0 0 1 4.33-2.8 4.73 4.73 0 0 1 .96.09z"/><path d="m21.59 22.79a4 4 0 0 1 1.21-3 5.57 5.57 0 0 1 3.2-1.44l3.91-.58c.74-.1 1.11-.46 1.11-1.09a2.44 2.44 0 0 0 -.78-1.88 3.31 3.31 0 0 0 -2.35-.73 3.18 3.18 0 0 0 -2.28.8 3.38 3.38 0 0 0 -1 2.14l-2.71-.63a4.81 4.81 0 0 1 1.89-3.38 6.31 6.31 0 0 1 4-1.32 6.1 6.1 0 0 1 4.54 1.5 5.28 5.28 0 0 1 1.5 3.82v7.3a14.84 14.84 0 0 0 .17 2.4h-2.76a12 12 0 0 1 -.15-2 5.42 5.42 0 0 1 -1.76 1.7 5.31 5.31 0 0 1 -2.9.73 4.83 4.83 0 0 1 -3.43-1.26 4.09 4.09 0 0 1 -1.41-3.08zm5.23 2a4.36 4.36 0 0 0 3-1 4.22 4.22 0 0 0 1.18-3.34v-.67l-4.42.67a2.73 2.73 0 0 0 -1.53.7 2 2 0 0 0 -.57 1.48 2 2 0 0 0 .64 1.49 2.32 2.32 0 0 0 1.7.64z"/><path d="m46.54 24.73v-.24a4.73 4.73 0 0 1 -1.73 1.86 5 5 0 0 1 -2.75.75 6.23 6.23 0 0 1 -5-2.2 8.22 8.22 0 0 1 -1.88-5.55 8 8 0 0 1 1.92-5.42 6.21 6.21 0 0 1 4.93-2.23 5.3 5.3 0 0 1 2.88.71 3.77 3.77 0 0 1 1.54 1.75v-9.45h2.79v19.29a22.16 22.16 0 0 0 .15 2.7h-2.7a11.37 11.37 0 0 1 -.15-1.97zm-8.45-5.38a6 6 0 0 0 1.13 3.77 3.72 3.72 0 0 0 3.11 1.46 3.67 3.67 0 0 0 3-1.49 6.07 6.07 0 0 0 1.14-3.8 5.71 5.71 0 0 0 -1.11-3.67 3.7 3.7 0 0 0 -3-1.4 3.84 3.84 0 0 0 -3.1 1.43 5.64 5.64 0 0 0 -1.17 3.7z"/><path d="m62.44 21.69 2.43.85a6.46 6.46 0 0 1 -2.34 3.33 6.73 6.73 0 0 1 -4.15 1.29 7 7 0 0 1 -5.16-2.11 7.7 7.7 0 0 1 -2.11-5.7 7.77 7.77 0 0 1 2-5.52 6.9 6.9 0 0 1 10-.11 8.13 8.13 0 0 1 1.89 5.57 5.67 5.67 0 0 1 -.06.91h-10.94a4.42 4.42 0 0 0 1.28 3.19 4.19 4.19 0 0 0 3.08 1.25 3.92 3.92 0 0 0 4.08-2.95zm-8.33-3.79h7.89a4 4 0 0 0 -1.09-2.69 3.83 3.83 0 0 0 -2.88-1.05 3.71 3.71 0 0 0 -2.77 1.11 4 4 0 0 0 -1.15 2.63z"/><path d="m65.41 22.91 2.59-.91a3.06 3.06 0 0 0 1 2 3.42 3.42 0 0 0 2.34.77 2.71 2.71 0 0 0 1.8-.56 1.77 1.77 0 0 0 .67-1.38c0-1-.63-1.6-1.87-1.89l-2.46-.54a4.79 4.79 0 0 1 -2.65-1.46 3.87 3.87 0 0 1 -1-2.64 4.23 4.23 0 0 1 1.55-3.3 5.19 5.19 0 0 1 3.62-1.36 7 7 0 0 1 2.46.41 4.11 4.11 0 0 1 1.69 1.08 6.16 6.16 0 0 1 .9 1.24 5.38 5.38 0 0 1 .45 1.19l-2.5.94a3.27 3.27 0 0 0 -.21-.72 4 4 0 0 0 -.47-.77 2.2 2.2 0 0 0 -.92-.68 3.41 3.41 0 0 0 -1.4-.26 2.55 2.55 0 0 0 -1.73.58 1.73 1.73 0 0 0 -.67 1.35c0 .93.55 1.52 1.65 1.76l2.34.52a5.47 5.47 0 0 1 3 1.56 4 4 0 0 1 1 2.78 4.33 4.33 0 0 1 -1.4 3.13 5.27 5.27 0 0 1 -3.89 1.4 6.06 6.06 0 0 1 -4.18-1.35 4.81 4.81 0 0 1 -1.71-2.89z"/><path d="m78.84 26.25a2 2 0 0 1 -.6-1.49 2.07 2.07 0 0 1 .6-1.5 2.05 2.05 0 0 1 3 0 2 2 0 0 1 .62 1.5 2 2 0 0 1 -.62 1.49 2.1 2.1 0 0 1 -3 0z"/><path d="m85.56 13.84a7.5 7.5 0 0 1 10.61 0 7.75 7.75 0 0 1 2.09 5.54 7.79 7.79 0 0 1 -2.08 5.62 7.52 7.52 0 0 1 -10.63 0 7.79 7.79 0 0 1 -2.08-5.58 7.75 7.75 0 0 1 2.09-5.58zm2.1 9.39a4.41 4.41 0 0 0 6.41 0 5.41 5.41 0 0 0 1.3-3.85 5.32 5.32 0 0 0 -1.3-3.81 4.41 4.41 0 0 0 -6.41 0 5.32 5.32 0 0 0 -1.3 3.81 5.41 5.41 0 0 0 1.3 3.85z"/><path d="m108.09 11.94v3a8.83 8.83 0 0 0 -1.24-.09q-4 0-4 4.49v7.36h-2.83v-14.61h2.77v2.56a4.46 4.46 0 0 1 4.32-2.8 4.83 4.83 0 0 1 .98.09z"/><path d="m108.09 27.49 2.73-.63a3.92 3.92 0 0 0 1.23 2.56 3.8 3.8 0 0 0 2.71 1q4.41 0 4.41-4.74v-2.07a4.25 4.25 0 0 1 -1.69 1.73 5.4 5.4 0 0 1 -2.72.66 6.3 6.3 0 0 1 -4.76-2 7.14 7.14 0 0 1 -1.87-5.09 7.25 7.25 0 0 1 1.87-5.04 6.15 6.15 0 0 1 4.78-2q3.3 0 4.45 2.31v-2h2.77v13.43a9.51 9.51 0 0 1 -.38 2.72 7.17 7.17 0 0 1 -1.18 2.32 5.33 5.33 0 0 1 -2.27 1.67 8.72 8.72 0 0 1 -3.41.61 6.91 6.91 0 0 1 -4.54-1.53 5.76 5.76 0 0 1 -2.13-3.91zm7.09-3.88a3.75 3.75 0 0 0 3-1.3 4.9 4.9 0 0 0 1.14-3.38 4.93 4.93 0 0 0 -1.14-3.39 3.78 3.78 0 0 0 -3-1.29 3.89 3.89 0 0 0 -3 1.28 4.87 4.87 0 0 0 -1.16 3.4 5 5 0 0 0 1.13 3.42 3.89 3.89 0 0 0 3.03 1.26z"/></g></svg>